<svg width="66" height="42" viewBox="0 0 66 42" fill="none" xmlns="http://www.w3.org/2000/svg">
<path d="M28.7575 9.3443C28.2132 10.0804 27.84 10.6921 27.8711 10.8787C27.9125 11.1379 29.2085 16.6066 30.9683 22.8193C30.6452 20.9186 30.3238 19.0231 30.0042 17.1328C29.5618 14.5409 29.1463 11.9448 28.7575 9.3443Z" fill="white"/>
<path d="M24.0352 9.30287C21.2463 11.9103 18.461 14.5194 15.6791 17.1302C19.6861 14.02 24.0948 9.78236 28.1458 5.56544C28.1458 5.53434 28.1458 5.50065 28.1458 5.47214L24.0352 9.30287Z" fill="white"/>
<path d="M13.7171 16.3915C17.61 12.7405 21.5073 9.09379 25.4088 5.4514C30.9208 0.297099 36.4354 -4.8546 41.9525 -10.0037L43.0541 -11.0405C43.2692 -11.7351 43.4739 -12.4297 43.6891 -13.1139L22.7133 5.68985L9.99259 17.0939C9.33427 17.6667 8.03835 19.2348 6.74243 20.3441C9.75414 21.2227 11.26 18.6957 13.7171 16.3915Z" fill="white"/>
<path d="M62.0185 -29.9168C62.9775 -32.7523 62.765 -35.4115 62.2518 -38.1796C62.1922 -38.0215 62.1222 -37.853 62.0755 -37.7104C61.298 -35.3778 60.4919 -33.0762 59.6729 -30.7695C57.3403 -24.194 54.9324 -17.6445 52.5117 -11.1001C49.4723 -2.89604 46.4079 5.29502 43.3184 13.4731C44.1971 12.8744 45.0835 12.2809 45.9673 11.6874C49.4231 3.0479 52.8313 -5.60969 56.1921 -14.2854C58.1904 -19.4691 60.2379 -24.6528 62.0185 -29.9168Z" fill="white"/>
<path d="M31.7692 6.37405C32.3057 7.2786 32.7618 8.18834 33.0651 8.65746C34.0681 10.2126 35.0349 11.804 36.0068 13.385C36.0898 13.074 36.1831 12.7629 36.266 12.4519C35.3433 10.8579 34.418 9.26395 33.5057 7.66479C33.1273 7.00906 32.4871 6.63842 31.7692 6.37405Z" fill="white"/>
<path d="M38.2177 5.39176C39.4272 1.10313 40.6756 -3.17167 41.9629 -7.43265L41.149 -6.67324L38.2177 5.39176Z" fill="white"/>
<path d="M65.3672 -33.8927C65.2635 -36.9174 64.53 -39.1515 63.6514 -40.7637C64.4289 -37.3321 65.2402 -33.7864 64.1698 -30.3963C62.5369 -25.293 60.5204 -20.2882 58.5973 -15.2989C55.3653 -6.89096 52.0503 1.48585 48.712 9.84193C49.474 9.30024 50.6352 8.35421 51.8067 7.70625L50.5108 7.59222C50.5108 7.59222 65.6367 -25.8321 65.3672 -33.8927Z" fill="white"/>
<path d="M54.2171 16.4641C52.9211 19.3903 51.068 22.1532 49.4351 24.8927C46.2653 30.2112 43.0125 35.483 39.7235 40.7289C39.6691 40.807 39.6036 40.8769 39.5291 40.9362C44.4018 38.6036 56.402 15.4222 56.2672 13.6675C56.1195 11.7625 54.8417 7.96545 54.8417 7.96545C55.0724 10.8346 55.3937 13.8075 54.2171 16.4641Z" fill="white"/>
<path d="M47.7271 12.7396C45.7711 14.0373 43.8264 15.3548 41.8929 16.6922C41.2398 17.1431 40.2289 16.3837 40.514 15.6321C44.5262 5.02804 48.4917 -5.59417 52.4106 -16.2345C54.6473 -22.3124 56.8763 -28.3954 59.0042 -34.5121C59.6522 -36.3757 60.3131 -38.2418 60.8833 -40.1313C59.7532 -39.2734 58.0556 -38.4673 57.2055 -37.8323C54.6007 -35.8936 52.0348 -33.9005 49.4714 -31.9074C44.2515 -27.8511 39.0678 -23.7508 33.7779 -19.7905C32.1087 -18.5387 27.135 -13.5701 24.7064 -14.0289C22.0394 -14.5343 24.8853 -20.3426 25.3388 -21.7007C27.5549 -28.3488 30.0041 -34.9191 32.3601 -41.5153C33.3969 -44.4493 34.4491 -47.3858 35.4055 -50.3483C35.7166 -51.3098 36.5848 -53.1993 36.7015 -54.4952C36.3732 -54.5114 36.0441 -54.4949 35.7191 -54.446C34.6539 -54.2153 33.5705 -54.0546 32.5027 -53.8317C29.535 -53.2071 26.5855 -52.4788 23.6516 -51.7168C20.5154 -50.9003 17.3897 -50.0372 14.2976 -49.0705C12.3486 -48.464 9.41201 -47.9638 7.77915 -46.686C5.25211 -44.7162 5.56313 -37.4357 5.21324 -34.4707C4.25944 -26.4377 3.50435 -18.3832 2.94797 -10.307C2.35963 -1.75393 1.85422 7.09459 3.50262 15.5621C3.73589 16.7751 4.15318 17.9129 4.45642 19.0948C4.49801 19.2306 4.51124 19.3735 4.4953 19.5147C5.29618 19.1337 6.21628 17.9596 6.82795 17.4023C19.5331 6.03971 32.2262 -5.33585 44.9072 -16.7244C45.5681 -17.3153 46.7733 -16.7529 46.4753 -15.8095C43.1551 -5.30215 39.9957 5.27772 37.2431 15.9483C37.0384 16.7414 35.9472 16.8477 35.5299 16.1712C34.5295 14.5263 33.5161 12.8848 32.4897 11.2467C31.751 10.0726 31.0098 8.89851 30.2374 7.74774C30.2374 7.7296 30.1985 7.69331 30.1856 7.67517C30.4448 9.07217 30.8232 10.6143 30.9631 11.524C31.5765 15.3651 32.2366 19.1959 32.9433 23.0162C33.5472 26.2897 34.1666 29.5632 34.8975 32.8082C35.1567 33.946 35.6025 35.1409 35.7606 36.2839C36.6237 34.664 38.4665 32.746 39.2803 31.4501C41.1361 28.4954 42.9348 25.5044 44.7232 22.5005C46.4701 19.5458 48.1911 16.5764 49.8861 13.5923C50.1298 13.1621 50.7233 11.7184 51.3557 10.407C50.1272 11.1586 48.922 11.9439 47.7271 12.7396ZM7.64697 -35.9869C7.82581 -36.7023 8.92734 -36.3964 8.7485 -35.6837C8.4387 -34.4521 8.23322 -33.1967 8.13424 -31.9307C8.07722 -31.2024 6.93422 -31.1998 6.99124 -31.9307C7.09494 -33.2988 7.3143 -34.6558 7.64697 -35.9869ZM5.67458 -3.50601C5.67458 -4.2421 6.8124 -4.2395 6.81499 -3.50601C6.82225 -2.39558 6.704 -1.28789 6.4625 -0.204014C6.3044 0.513924 5.20287 0.208088 5.36097 -0.507259C5.57663 -1.49208 5.68182 -2.49788 5.67458 -3.50601ZM4.92813 7.17754C4.71213 6.2271 4.73977 5.2375 5.00848 4.30059C5.21064 3.59562 6.3044 3.89627 6.11001 4.60384C5.89195 5.34085 5.86431 6.12111 6.02966 6.8717C6.19036 7.58964 5.08883 7.89547 4.92813 7.17754ZM5.72642 13.8126C5.6046 13.074 5.4802 12.3353 5.35838 11.5966C5.23656 10.8579 6.34069 10.5599 6.45991 11.2934C6.57913 12.0269 6.70613 12.7707 6.82795 13.5094C6.94977 14.2481 5.85083 14.5358 5.7316 13.8126H5.72642ZM6.94199 -24.3703L7.08972 -27.5012C7.12601 -28.2347 8.26642 -28.2373 8.23273 -27.5012C8.18434 -26.4645 8.13423 -25.4209 8.0824 -24.3703C8.05389 -23.6368 6.91089 -23.6368 6.94717 -24.3703H6.94199ZM8.83921 2.5848C8.83921 3.32088 7.69881 3.32088 7.69881 2.5848V-0.73534C7.69881 -1.47142 8.83921 -1.46883 8.83921 -0.73534V2.5848ZM10.6872 10.1556C10.6872 10.8916 9.54419 10.8916 9.54419 10.1556V7.20605C9.54419 6.46996 10.6872 6.47256 10.6872 7.20605V10.1556ZM11.7939 -27.8796C11.7447 -27.1487 10.6017 -27.1462 10.6509 -27.8796C10.7273 -29.0544 10.9121 -30.2197 11.203 -31.3605C11.3818 -32.0732 12.4833 -31.77 12.3019 -31.0572C12.0374 -30.0148 11.8691 -28.9503 11.7991 -27.877L11.7939 -27.8796ZM55.1294 -33.0296C55.3549 -33.7268 56.4564 -33.4288 56.2309 -32.7264C55.8318 -31.484 55.4335 -30.2425 55.0361 -29.0019C54.8106 -28.3047 53.7091 -28.6054 53.9346 -29.3052C54.3354 -30.5371 54.7354 -31.7778 55.1346 -33.027L55.1294 -33.0296ZM53.7246 -25.8658C53.4654 -25.1349 53.2063 -24.4023 52.9471 -23.6679C52.7008 -22.9785 51.5993 -23.2765 51.8455 -23.9712C52.0918 -24.6658 52.3639 -25.4381 52.6231 -26.1716C52.8771 -26.8559 53.9786 -26.5578 53.7298 -25.8632L53.7246 -25.8658ZM51.1328 -29.3181C51.392 -30.0049 52.4857 -29.7069 52.2343 -29.0149L51.3013 -26.423C51.0421 -25.7362 49.9483 -26.0343 50.1997 -26.7263L51.1328 -29.3181ZM50.1583 -19.3655C50.4019 -20.0549 51.506 -19.7568 51.2598 -19.0622L50.4045 -16.6388C50.1609 -15.9494 49.0567 -16.2475 49.303 -16.9421L50.1583 -19.3655Z" fill="white"/>
<path d="M4.66895 21.5026C4.81168 21.5897 4.9617 21.6643 5.11733 21.7255C4.97219 21.6555 4.82705 21.5803 4.67672 21.5L4.66895 21.5026Z" fill="white"/>
<path d="M46.9677 25.3619C48.6783 22.5108 50.4175 19.6598 51.9726 16.7259C52.8486 15.0671 53.0948 13.3979 53.1233 11.6692C53.0249 11.8299 52.9134 12.0009 52.8305 12.1487C51.0602 15.3574 49.2226 18.5272 47.3669 21.6892C44.2567 26.9714 41.2683 32.5179 37.5775 37.4217C37.4152 37.63 37.2421 37.8299 37.0591 38.0204L38.5987 38.9638C41.4273 34.454 44.2169 29.92 46.9677 25.3619Z" fill="white"/>
<path d="M47.6494 12.5167C47.2036 13.626 45.3893 13.1388 45.8351 12.0191L45.9647 11.6873C45.0809 12.2809 44.1945 12.8744 43.3158 13.4731C46.4053 5.29154 49.4697 -2.89953 52.5091 -11.1001C54.9299 -17.6445 57.3377 -24.194 59.6703 -30.7695C60.4893 -33.0763 61.3032 -35.3856 62.073 -37.7105C62.1196 -37.853 62.1896 -38.0215 62.2492 -38.1796C62.0211 -39.4081 61.7308 -40.6548 61.4716 -41.9533C61.4436 -42.0846 61.4437 -42.2204 61.4718 -42.3517C61.4998 -42.483 61.5553 -42.6069 61.6346 -42.7153C61.7139 -42.8237 61.8151 -42.9141 61.9318 -42.9807C62.0484 -43.0472 62.1778 -43.0884 62.3114 -43.1015C62.198 -43.1031 62.0849 -43.0909 61.9745 -43.0652C61.0725 -42.9175 59.901 -42.0648 59.1234 -41.5308C54.3882 -38.2651 49.9043 -34.6055 45.3686 -31.0728C40.4907 -27.2706 35.631 -23.4346 30.6236 -19.8035C30.3281 -18.8981 30.0318 -17.9935 29.7346 -17.0898C29.3588 -15.9442 27.5471 -16.4367 27.9203 -17.5875C27.9799 -17.7663 28.037 -17.9425 28.094 -18.1188C27.3812 -17.7378 26.5778 -17.3231 25.9194 -16.8903C26.1216 -17.5849 26.2382 -18.4091 26.4119 -18.9637C28.7445 -26.3945 31.5541 -33.6776 34.1615 -41.0099C35.333 -44.2989 36.5149 -47.5906 37.5516 -50.9237C37.5775 -51.004 37.6138 -51.1025 37.6397 -51.1828C37.4353 -52.5393 37.1304 -53.8786 36.7274 -55.1898C36.3827 -56.351 38.1944 -56.8434 38.5417 -55.6874C38.5421 -55.6926 38.5421 -55.6978 38.5417 -55.703C38.5258 -55.7525 38.5049 -55.8002 38.4795 -55.8455C38.4303 -55.9865 38.3416 -56.1104 38.2239 -56.2023C38.1063 -56.2942 37.9646 -56.3503 37.816 -56.3639C35.9602 -57.2192 31.5178 -55.8015 29.0711 -55.0524C28.5786 -54.8995 28.1406 -54.7699 27.8555 -54.7C21.8425 -53.2667 15.7776 -51.7245 9.97186 -49.6044C6.43141 -48.3085 5.30655 -47.7201 4.65341 -44.006C3.35749 -36.6867 2.70694 -29.2196 2.02011 -21.8251C1.62355 -17.546 1.24256 -13.2358 0.957453 -8.92295C0.57127 -3.03949 0.389841 2.85435 0.804535 8.71708C0.965229 10.9668 0.991147 21.3626 4.4668 21.5415C4.5316 21.5415 4.60676 21.5078 4.67674 21.5026C4.54715 21.4326 4.4357 21.3886 4.30351 21.3108C3.26678 20.7095 4.19984 19.087 5.24953 19.6909C5.71906 19.9679 6.22032 20.1872 6.74243 20.3441C8.03835 19.2348 9.33427 17.6667 9.98741 17.0835L22.7081 5.67945L43.6839 -13.1243C43.4688 -12.4323 43.264 -11.7377 43.0489 -11.0509L43.1707 -11.1649C44.0519 -11.9891 45.3815 -10.6621 44.4977 -9.83787L41.9551 -7.46116C40.6592 -3.20018 39.4108 1.07462 38.2099 5.36324C37.79 6.86132 37.3753 8.36201 36.9658 9.86527C37.3235 10.5055 37.6786 11.1482 38.044 11.778C38.6505 12.8148 37.028 13.7712 36.4241 12.7267L36.2557 12.4364C36.1727 12.7474 36.0794 13.0584 35.9965 13.3694C35.0245 11.7884 34.0578 10.2022 33.0548 8.64191C32.7541 8.17798 32.2979 7.26306 31.7588 6.35851C30.8199 6.06312 29.8587 5.84383 28.8845 5.70277C28.7614 5.68578 28.644 5.6401 28.5418 5.56942C28.4396 5.49874 28.3555 5.40503 28.2961 5.29586L28.1251 5.45655C28.1251 5.48506 28.1251 5.51875 28.1251 5.54986C28.164 6.44922 28.4491 7.46523 28.5553 8.20649C28.6098 8.58231 28.6797 8.95293 28.7368 9.32875C29.1203 11.9206 29.5359 14.5167 29.9834 17.1172C30.3048 19.0041 30.6262 20.8996 30.9476 22.8037C31.7251 27.2928 32.5493 31.7922 33.7597 36.1543C33.9394 36.9188 34.2498 37.6466 34.6772 38.3055C34.641 37.6394 35.3174 36.9474 36.0535 37.3983L37.0436 38.0048C37.2266 37.8143 37.3996 37.6145 37.562 37.4061C41.2527 32.5024 44.2489 26.9558 47.3513 21.6737C49.2071 18.5116 51.0447 15.3418 52.8149 12.1331C52.8979 11.9854 53.0093 11.8143 53.1078 11.6536C53.1259 10.4588 53.0534 9.23804 52.9497 7.95767C52.8538 6.74987 54.7303 6.76024 54.8262 7.95767C54.8295 7.79313 54.788 7.63078 54.7063 7.48792C54.6246 7.34506 54.5057 7.22704 54.3622 7.14643C53.6521 6.84578 52.719 7.16716 51.7704 7.68553C50.5989 8.33349 49.4377 9.27951 48.6757 9.82121C48.3466 10.7283 48.0045 11.6251 47.6494 12.5167ZM44.7128 22.4979C42.9348 25.5018 41.1361 28.4928 39.27 31.4475C38.4561 32.7434 36.6133 34.6614 35.7503 36.2813C35.5922 35.1279 35.1438 33.9486 34.8872 32.8056C34.1563 29.5606 33.5368 26.2871 32.9329 23.0136C32.2297 19.1985 31.5714 15.3738 30.958 11.5396C30.8128 10.6299 30.424 9.08771 30.1804 7.69071C30.1934 7.70885 30.2219 7.74514 30.2322 7.76328C31.0098 8.91405 31.7459 10.0959 32.4846 11.2623C33.5109 12.8934 34.5243 14.5349 35.5248 16.1868C35.9343 16.8632 37.0332 16.757 37.238 15.9639C40.0009 5.29327 43.15 -5.2892 46.4701 -15.7939C46.7682 -16.7373 45.563 -17.2998 44.902 -16.7088C32.2159 -5.33758 19.5245 6.03281 6.82796 17.4023C6.20851 17.957 5.28841 19.1337 4.49531 19.5147C4.51125 19.3735 4.49802 19.2306 4.45643 19.0948C4.15319 17.9129 3.7359 16.7751 3.50264 15.5621C1.85423 7.09459 2.35964 -1.75653 2.94798 -10.307C3.50264 -18.378 4.25772 -26.4325 5.21325 -34.4707C5.56315 -37.4357 5.25213 -44.7162 7.77917 -46.686C9.4198 -47.9638 12.3563 -48.464 14.3028 -49.0731C17.3949 -50.0398 20.5232 -50.9029 23.6568 -51.7193C26.5907 -52.4813 29.5402 -53.2097 32.5079 -53.8343C33.5757 -54.0572 34.6591 -54.2179 35.7243 -54.4486C36.0493 -54.4975 36.3784 -54.514 36.7066 -54.4978C36.5848 -53.1863 35.7166 -51.3098 35.4107 -50.3509C34.4414 -47.3858 33.3969 -44.4492 32.3524 -41.5205C30.0042 -34.9191 27.5471 -28.3539 25.3311 -21.7059C24.8775 -20.3478 22.0317 -14.5395 24.6987 -14.0341C27.135 -13.5753 32.1087 -18.5438 33.7701 -19.7957C39.06 -23.756 44.2437 -27.8563 49.4637 -31.9125C52.027 -33.9057 54.5929 -35.8988 57.1977 -37.8375C58.0478 -38.4725 59.7455 -39.2785 60.8755 -40.1364C60.3053 -38.247 59.6444 -36.3809 58.9964 -34.5173C56.8685 -28.4006 54.6396 -22.3176 52.4028 -16.2397C48.4891 -5.59763 44.5236 5.0289 40.5063 15.6399C40.2212 16.3915 41.232 17.1509 41.8851 16.6999C43.8152 15.3643 45.7599 14.0468 47.7194 12.7474C48.9142 11.9517 50.1194 11.1664 51.3479 10.4147C50.7155 11.7262 50.122 13.1699 49.8784 13.6001C48.1868 16.5773 46.4649 19.5432 44.7128 22.4979Z" fill="#1A1A1A"/>
<path d="M61.4691 -41.9533C61.7412 -40.6574 62.0237 -39.4081 62.2466 -38.1796C62.765 -35.4115 62.9723 -32.7523 62.0133 -29.9168C60.2328 -24.6528 58.1852 -19.4691 56.1869 -14.2855C52.8348 -5.60628 49.4265 3.05132 45.9621 11.6873L45.8325 12.0191C45.3841 13.1387 47.1984 13.626 47.6468 12.5167C48.0019 11.6251 48.344 10.7283 48.6991 9.83674C52.0374 1.47289 55.3523 -6.90393 58.5843 -15.3041C60.5075 -20.3011 62.5239 -25.2982 64.1568 -30.4015C65.2376 -33.7709 64.416 -37.3243 63.6384 -40.7559C63.5088 -41.3209 63.3792 -41.8859 63.2652 -42.4458C63.2471 -42.5535 63.2072 -42.6563 63.1479 -42.748C63.0886 -42.8397 63.0112 -42.9184 62.9204 -42.9791C62.8296 -43.0397 62.7274 -43.0812 62.62 -43.1009C62.5126 -43.1207 62.4023 -43.1182 62.2959 -43.0937C62.1642 -43.0788 62.037 -43.0366 61.9226 -42.9698C61.8081 -42.903 61.7088 -42.8131 61.631 -42.7058C61.5532 -42.5985 61.4986 -42.4762 61.4707 -42.3466C61.4429 -42.2171 61.4423 -42.0831 61.4691 -41.9533Z" fill="#1A1A1A"/>
<path d="M28.1355 5.4721L28.3066 5.31141C28.2331 5.14518 28.206 4.9622 28.228 4.78182C28.2501 4.60145 28.3204 4.43038 28.4317 4.28671C28.543 4.14304 28.691 4.03212 28.8601 3.96567C29.0293 3.89922 29.2132 3.87972 29.3925 3.90922L29.7398 3.97143C33.5412 0.417157 37.3426 -3.13539 41.1439 -6.6862L41.9578 -7.44561L44.5003 -9.82232C45.3842 -10.6465 44.0546 -11.9735 43.1733 -11.1493L43.0515 -11.0353L41.95 -9.99857C36.4363 -4.85118 30.9209 0.298796 25.4037 5.45137C21.5056 9.09549 17.6083 12.7422 13.7119 16.3915C11.2549 18.6957 9.74901 21.2227 6.74507 20.3441C6.21658 20.1878 5.70915 19.9676 5.23403 19.6883C4.19729 19.0844 3.23831 20.7069 4.28801 21.3082C4.42019 21.386 4.53164 21.43 4.66123 21.5C4.79082 21.57 4.9567 21.6555 5.10184 21.7255C8.24056 23.2806 9.93302 22.5212 12.4341 20.1704C13.5124 19.1561 14.5923 18.1445 15.6739 17.1354C18.4576 14.5262 21.2429 11.9171 24.03 9.30802L28.1355 5.4721Z" fill="#1A1A1A"/>
<path d="M52.9652 7.9836C53.0689 9.26397 53.1415 10.4847 53.1233 11.6796C53.0948 13.4083 52.8486 15.0775 51.9725 16.7362C50.4174 19.6754 48.6783 22.5238 46.9677 25.3722C44.2256 29.9339 41.4376 34.4678 38.6039 38.9742L37.0669 38.0204L36.0768 37.4139C35.3407 36.9629 34.6643 37.6549 34.7006 38.321C34.7054 38.4667 34.7475 38.6087 34.8228 38.7335C34.8981 38.8583 35.0041 38.9617 35.1308 39.0338L38.4432 41.0658C38.6146 41.1634 38.8129 41.2035 39.0088 41.1802C39.2047 41.1569 39.388 41.0714 39.5317 40.9362C39.6062 40.8769 39.6717 40.807 39.7261 40.7289C43.0152 35.483 46.2679 30.2112 49.4377 24.8927C51.0706 22.1532 52.9238 19.3903 54.2197 16.4641C55.3964 13.8075 55.075 10.8217 54.8443 7.97323C54.7458 6.77581 52.8771 6.76544 52.9652 7.9836Z" fill="#1A1A1A"/>
<path d="M29.7398 3.97143L29.3925 3.90922C29.2132 3.87972 29.0293 3.89922 28.8601 3.96567C28.691 4.03212 28.543 4.14304 28.4317 4.28671C28.3204 4.43038 28.2501 4.60145 28.228 4.78182C28.206 4.9622 28.2331 5.14518 28.3065 5.31141C28.3659 5.42058 28.45 5.51428 28.5522 5.58497C28.6544 5.65565 28.7718 5.70133 28.8949 5.71832C29.869 5.85938 30.8303 6.07867 31.7692 6.37406C32.4872 6.63324 33.1273 7.00906 33.5032 7.66998C34.4155 9.26914 35.3408 10.8631 36.2635 12.4571L36.4319 12.7474C37.0358 13.7841 38.6583 12.8459 38.0518 11.7988C37.6864 11.169 37.3313 10.5262 36.9736 9.886C36.2738 8.63414 35.574 7.37969 34.8094 6.17189C33.8349 4.62716 31.4893 4.28504 29.7398 3.97143Z" fill="#1A1A1A"/>
<path d="M6.46253 -0.204039C6.70403 -1.28791 6.82228 -2.39561 6.81502 -3.50604C6.81502 -4.23953 5.66943 -4.24212 5.67461 -3.50604C5.68185 -2.49791 5.57666 -1.49211 5.361 -0.507283C5.2029 0.208063 6.30443 0.513899 6.46253 -0.204039Z" fill="#1A1A1A"/>
<path d="M6.03487 6.87169C5.86951 6.1211 5.89716 5.34084 6.11522 4.60384C6.31738 3.89627 5.21585 3.59561 5.01369 4.30059C4.74497 5.23749 4.71734 6.22709 4.93334 7.17753C5.08885 7.89547 6.19038 7.58963 6.03487 6.87169Z" fill="#1A1A1A"/>
<path d="M7.70404 -0.735379V2.58735C7.70404 3.32343 8.84445 3.32343 8.84445 2.58735V-0.735379C8.84445 -1.46887 7.70404 -1.47146 7.70404 -0.735379Z" fill="#1A1A1A"/>
<path d="M5.36352 11.5966C5.48534 12.3353 5.60974 13.0739 5.73156 13.8126C5.85338 14.5513 6.95231 14.2299 6.83309 13.5094C6.71387 12.7888 6.58687 12.032 6.46505 11.2933C6.34323 10.5547 5.2443 10.8761 5.36352 11.5966Z" fill="#1A1A1A"/>
<path d="M9.54938 7.20602V10.1607C9.54938 10.8968 10.6924 10.8968 10.6924 10.1607V7.20602C10.6924 6.46994 9.54938 6.46734 9.54938 7.20602Z" fill="#1A1A1A"/>
</svg>
