<svg width="80" height="143" viewBox="0 0 80 143" fill="none" xmlns="http://www.w3.org/2000/svg">
<path d="M77.0663 52.7189C76.6588 49.9113 76.0762 47.1318 75.3219 44.3969C74.3941 45.4459 73.4766 46.5071 72.5694 47.5804L74.1628 56.8164C75.1805 55.3773 76.1621 53.9912 77.0663 52.7189Z" fill="#FFE761"/>
<path d="M73.0702 58.3011C72.5287 55.1602 71.9881 52.0195 71.4485 48.8791C70.4665 50.068 69.5279 51.2935 68.577 52.5064C68.888 55.7723 69.3637 59.0071 69.9642 62.2317C70.9808 60.9019 72.024 59.6011 73.0702 58.3011Z" fill="#FFE761"/>
<path d="M68.8832 63.6381C68.8719 63.6101 68.8449 63.606 68.8373 63.5758C68.2155 60.3956 67.7561 57.1933 67.4078 53.9737C66.3385 55.3562 65.2856 56.7629 64.2492 58.1938L65.0429 68.8959C66.303 67.1286 67.5831 65.376 68.8832 63.6381Z" fill="#FFE761"/>
<path d="M61.3149 74.3653C62.1624 73.106 63.0157 71.8482 63.8872 70.6047C63.8934 70.5813 63.8592 70.569 63.8567 70.5433L63.0639 59.8727C61.9187 61.4684 60.7911 63.0762 59.6811 64.696C59.772 64.7638 59.8357 64.8619 59.8605 64.9726C60.334 68.0952 60.8187 71.2261 61.3149 74.3653Z" fill="#FFE761"/>
<path d="M80.6924 47.5946C80.5382 46.7688 80.3837 45.9399 80.2291 45.1078C80.2085 44.9614 80.2406 44.8125 80.3197 44.6877C79.0701 44.3529 77.8085 44.0743 76.5514 43.7907C77.2225 46.2272 77.7574 48.6992 78.1536 51.1952C79.0687 49.882 79.9347 48.6589 80.6924 47.5946Z" fill="#FFE761"/>
<path d="M70.4071 34.2896C66.1097 33.4367 61.7552 32.9027 57.379 32.692C57.1868 32.6902 56.9984 32.6384 56.8323 32.5416C56.6663 32.4448 56.5283 32.3064 56.432 32.14C56.3357 31.9737 56.2844 31.7851 56.2832 31.5929C56.282 31.4006 56.3308 31.2114 56.425 31.0438C61.9193 21.7856 71.3694 14.3946 79.4093 7.45507C84.9209 2.6983 90.5416 -1.92809 96.2714 -6.42408C87.2746 -8.32781 78.1918 -10.1325 69.0644 -11.1637C67.0475 -11.3912 64.3587 -11.949 62.3069 -11.3221C53.1956 0.725298 27.764 36.7295 23.6375 47.0146C23.81 47.1766 24.1948 47.2703 25.0405 47.5126C27.4973 48.2241 30.2009 48.2945 32.7425 48.4091C36.8857 48.5961 41.0531 48.5643 45.1968 48.3759C45.9951 48.3395 46.6213 49.3428 46.15 50.027C41.9052 56.1872 38.6962 63.3635 35.8969 70.6339L50.5743 74.5666C58.6391 61.7413 67.4806 49.2523 77.91 38.3936L70.4071 34.2896ZM44.2358 22.7302C40.0491 28.6226 36.2619 34.7891 32.8999 41.1881C32.252 42.4383 30.36 41.3243 31.0071 40.077C34.3691 33.678 38.1563 27.5115 42.343 21.619C43.1577 20.4823 45.0515 21.5781 44.2358 22.7302ZM47.1801 19.2632L46.9144 19.192C45.5538 18.8274 46.1202 16.7136 47.4808 17.0781L47.7465 17.1493C49.1071 17.5139 48.5393 19.6211 47.1816 19.2573L47.1801 19.2632Z" fill="#FFE761"/>
<path d="M68.1937 28.3486C68.2526 29.0747 68.5117 30.1518 68.4835 31.0862C69.6364 29.8899 70.8429 28.7392 72.0291 27.5707C71.8038 23.9616 71.7729 20.3515 71.9085 16.739C70.3929 18.0895 68.9144 19.4771 67.4729 20.9017C67.5279 20.9884 67.6067 21.0564 67.617 21.1812L68.1937 28.3486Z" fill="#FFE761"/>
<path d="M58.6856 66.1223C57.7209 67.5505 56.7591 68.9795 55.8175 70.4264C55.918 70.4977 55.9888 70.6036 56.0163 70.7237L56.9421 76.2729L59.5436 76.97C59.7663 76.6291 59.9854 76.2904 60.2103 75.9532L58.6856 66.1223Z" fill="#FFE761"/>
<path d="M83.6313 43.4002L84.5952 42.0218L79.9068 39.4669C79.1546 40.2417 78.3975 41.012 77.6619 41.8069C79.6705 42.2679 81.6603 42.799 83.6313 43.4002Z" fill="#FFE761"/>
<path d="M67.1427 31.2432C67.0751 30.8183 66.9544 29.4936 66.9263 29.1543L66.7341 26.7652L66.35 22.009C65.1086 23.2786 63.9247 24.5823 62.7985 25.9203C62.9127 25.9572 63.0118 26.0301 63.0809 26.1282C63.1501 26.2264 63.1854 26.3443 63.1816 26.4642C63.1625 27.9948 63.3313 29.5219 63.6843 31.0113C64.7901 31.1355 65.8926 31.3307 66.9962 31.4981C67.0272 31.4407 67.0298 31.3726 67.068 31.3234L67.1427 31.2432Z" fill="#FFE761"/>
<path d="M29.7899 51.6736C29.3914 52.4367 29.0213 53.2106 28.6868 54.0035C29.3476 54.0366 30.0234 54.0487 30.7229 54.0077L29.7899 51.6736Z" fill="#FFE761"/>
<path d="M59.2954 30.6552C60.301 30.7212 61.3051 30.7931 62.3137 30.8944C62.0457 29.6399 61.9007 28.3622 61.8808 27.0795C60.9565 28.24 60.0947 29.4319 59.2954 30.6552Z" fill="#FFE761"/>
<path d="M23.0581 49.1531C22.6741 51.754 24.0688 53.1009 26.2823 53.669C26.7017 52.6 27.2096 51.568 27.8007 50.5835C25.8933 50.2977 24.2306 49.846 23.0581 49.1531Z" fill="#FFE761"/>
<path d="M39.3971 57.8278L39.4703 57.8818C39.6329 57.5436 39.7817 57.1985 39.948 56.8582C40.4166 55.8916 40.9014 54.9231 41.3931 53.9408L40.9232 53.0201C40.6214 53.9594 40.0957 55.6179 39.3971 57.8278Z" fill="#FFE761"/>
<path d="M88.3001 15.6986C82.1364 20.9034 76.172 26.3337 70.5746 32.0877L70.6768 32.1151C74.2735 28.8292 83.3458 20.5359 91.601 12.9562C90.5563 13.8185 89.5124 14.6778 88.4748 15.5608C88.4277 15.6193 88.368 15.6665 88.3001 15.6986Z" fill="#FFE761"/>
<path d="M35.5918 53.4253C35.2204 52.6155 34.852 51.8064 34.4416 51.0142C33.2568 51.0097 32.071 50.9736 30.9079 50.8998L32.1082 53.9064C33.3023 53.7945 34.4805 53.6251 35.5918 53.4253Z" fill="#FFE761"/>
<path d="M82.1738 18.1127C82.1547 18.0308 82.1579 17.9452 82.1833 17.865C82.2086 17.7848 82.2551 17.7129 82.3178 17.6568C82.0248 14.5929 81.7706 11.5238 81.5862 8.45147C80.4004 9.46683 79.182 10.4985 77.9415 11.543C77.9147 14.9051 78.0227 18.2626 78.2655 21.6155C79.5607 20.4334 80.8634 19.2657 82.1738 18.1127Z" fill="#FFE761"/>
<path d="M43.2126 50.6889C42.6357 50.7283 41.9993 50.7674 41.3043 50.8034L42.1427 52.4863C42.4735 51.8708 42.855 51.2877 43.2126 50.6889Z" fill="#FFE761"/>
<path d="M77.1235 22.6426C77.0714 22.5567 76.9927 22.4886 76.9815 22.3667C76.7338 19.1335 76.6306 15.8983 76.6294 12.6559C75.5087 13.6074 74.3865 14.572 73.2629 15.5498C73.0941 19.1346 73.1307 22.7118 73.3153 26.2974C74.5795 25.0715 75.8327 23.8395 77.1235 22.6426Z" fill="#FFE761"/>
<path d="M40.5584 52.3027L39.8366 50.8857C38.6155 50.9465 37.2854 50.9938 35.9132 51.011C36.2648 51.7311 36.6076 52.4488 36.9387 53.1634C38.5412 52.8355 39.835 52.5031 40.5584 52.3027Z" fill="#FFE761"/>
<path d="M54.8688 71.8997C54.1709 72.9863 53.4657 74.0647 52.7757 75.1566L55.5348 75.8959L54.8688 71.8997Z" fill="#FFE761"/>
<path d="M80.6925 47.5946L80.7006 47.6343C80.748 48.1492 80.843 48.6587 80.9844 49.1561C81.3533 48.7605 81.7381 48.3754 82.112 47.9843C82.0913 47.863 82.0755 47.7586 82.0679 47.7284L81.9033 46.8363L81.7621 46.0787C81.6943 45.7476 81.6328 45.3931 81.5711 45.0512C81.1507 44.9385 80.741 44.7974 80.3198 44.6877C80.2407 44.8125 80.2085 44.9614 80.2291 45.1078C80.3804 45.9369 80.5348 46.7658 80.6925 47.5946Z" fill="#1A1A1A"/>
<path d="M35.8969 70.6339C38.693 63.3752 41.9052 56.1872 46.15 50.027C46.6213 49.3428 45.9951 48.3395 45.1967 48.3759C41.0531 48.5643 36.8857 48.5961 32.7425 48.4091C30.2009 48.2945 27.4973 48.2241 25.0405 47.5126C24.2065 47.2735 23.8084 47.1824 23.6374 47.0146C23.4181 46.8056 23.5767 46.482 23.7476 45.5639C24.3594 42.3232 27.2287 38.6922 28.8855 35.9191C31.4725 31.5898 34.1948 27.3279 36.9542 23.1261C42.8133 14.1877 48.8644 5.35091 55.185 -3.25411C56.8712 -5.55297 58.7264 -9.13652 61.0755 -10.8259C61.4552 -11.0572 61.8702 -11.2251 62.3039 -11.3229C64.3499 -11.9513 67.0446 -11.392 69.0615 -11.1645C78.1947 -10.1317 87.2775 -8.32701 96.2684 -6.42484C90.5359 -1.93379 84.9152 2.6926 79.4063 7.4543C71.3711 14.3763 61.9163 21.7848 56.422 31.0431C56.3279 31.2107 56.279 31.3999 56.2802 31.5921C56.2815 31.7843 56.3328 31.9729 56.4291 32.1392C56.5254 32.3056 56.6633 32.444 56.8294 32.5408C56.9955 32.6376 57.1839 32.6895 57.3761 32.6913C61.7522 32.9019 66.1068 33.4359 70.4041 34.2889C73.4903 34.9031 76.5351 35.7095 79.5206 36.7035C78.9754 37.2552 78.4482 37.8212 77.9109 38.3782C67.4864 49.2539 58.6361 61.7405 50.5752 74.5513L52.7767 75.1412C53.4667 74.0493 54.1718 72.9709 54.8698 71.8842L54.7341 71.0593C54.7109 70.9245 54.7291 70.7859 54.7861 70.6617C54.8432 70.5375 54.9366 70.4334 55.0539 70.3633C55.1713 70.2931 55.3071 70.2601 55.4436 70.2687C55.5801 70.2772 55.7107 70.3268 55.8184 70.411C56.76 68.9641 57.7219 67.5351 58.6866 66.1069L58.5632 65.2946C58.5386 65.1572 58.5572 65.0156 58.6166 64.8892C58.676 64.7629 58.7731 64.6581 58.8946 64.5893C59.016 64.5206 59.1559 64.4912 59.2947 64.5053C59.4336 64.5194 59.5647 64.5763 59.6699 64.668C60.7809 63.0443 61.9085 61.4365 63.0527 59.8446C63.0125 59.2706 62.9703 58.696 62.9262 58.1209C62.8622 57.262 64.1952 57.2624 64.2586 58.1118C64.2532 58.1322 64.2477 58.1527 64.2648 58.1823C65.303 56.7602 66.3558 55.3535 67.4233 53.9622C67.3692 53.4752 67.296 52.9893 67.2485 52.5009C67.1646 51.6461 68.5005 51.6473 68.5809 52.4918C69.5318 51.279 70.4704 50.0534 71.4523 48.8645L71.2582 47.7673C71.1139 46.9275 72.3979 46.5737 72.5442 47.4172C72.5514 47.4723 72.5622 47.5253 72.5723 47.5812C73.4848 46.5114 74.4023 45.4502 75.3248 44.3976C75.2426 44.0971 75.1744 43.7909 75.0973 43.4949C75.0884 43.4581 75.1122 43.4394 75.1208 43.4073C74.0428 42.9339 74.6052 41.1037 75.8938 41.3864C76.4856 41.5136 77.0695 41.6701 77.6765 41.8108C78.4121 41.0159 79.1692 40.2456 79.9214 39.4708C80.7257 38.6411 81.4976 37.7808 82.3183 36.9837C82.9476 36.3637 82.5894 35.4228 81.8308 35.1476C78.2018 33.857 74.4789 32.848 70.6949 32.1293L70.5927 32.1019C70.1063 32.5975 69.579 33.0821 69.1014 33.5799C68.252 34.4726 66.9606 33.3943 67.3097 32.4302C67.2688 32.4192 67.2192 32.4059 67.1889 32.379L67.0762 32.2737C66.9819 32.1715 66.9242 32.0408 66.912 31.9022C66.8999 31.7637 66.9341 31.625 67.0092 31.5079C65.9056 31.3405 64.8032 31.1452 63.6974 31.021C63.7179 31.1079 63.7215 31.1996 63.745 31.2873C63.9531 32.1222 62.667 32.4723 62.461 31.6411C62.3984 31.3958 62.3777 31.1462 62.3268 30.9041C61.3181 30.8028 60.3141 30.731 59.3085 30.6649C60.1077 29.4417 60.9695 28.2498 61.8938 27.0892C61.8913 26.8883 61.8602 26.6891 61.8614 26.486C61.8641 26.3757 61.8948 26.268 61.9509 26.1729C62.0069 26.0779 62.0862 25.9988 62.1814 25.9431C62.2766 25.8874 62.3845 25.8569 62.4948 25.8546C62.6051 25.8524 62.7141 25.8783 62.8115 25.9301C63.9378 24.5921 65.1216 23.2883 66.363 22.0187C66.339 21.7463 66.3187 21.4717 66.2976 21.2001C66.2373 20.4673 67.1602 20.3985 67.4859 20.9114C68.9269 19.4887 70.4054 18.1012 71.9215 16.7487C71.9382 16.2776 71.9255 15.811 71.9489 15.3385C71.9933 14.4836 73.3265 14.4716 73.2813 15.3294C73.28 15.4042 73.2809 15.4826 73.2759 15.5595C74.4006 14.5779 75.5227 13.6132 76.6424 12.6657C76.6416 12.1898 76.6202 11.7209 76.626 11.2437C76.6339 10.3853 77.9663 10.3761 77.9584 11.2346C77.956 11.3372 77.9623 11.4422 77.9619 11.5485C79.1805 10.5043 80.4135 9.47659 81.6067 8.45696C81.5916 8.22135 81.5611 7.98474 81.5497 7.74698C81.5058 6.99983 82.4637 6.94042 82.758 7.48869C84.0814 6.35687 85.428 5.24377 86.7637 4.12462C86.7602 3.81075 86.7249 3.51027 86.7169 3.20145C86.7035 2.38735 87.8609 2.36576 87.9998 3.08518C88.942 2.30183 89.8682 1.50794 90.8204 0.733554L90.2614 0.624433C88.8763 0.362838 89.4544 -1.7479 90.8278 -1.48943C91.5726 -1.34933 92.3119 -1.18878 93.0567 -1.04867C94.3851 -2.11344 95.7122 -3.17334 97.038 -4.22838C97.8792 -4.89172 98.7075 -5.57727 99.5537 -6.23613C99.7379 -6.35753 99.8673 -6.54631 99.9139 -6.76196C99.9606 -6.97761 99.9209 -7.20296 99.8033 -7.38968C99.799 -7.41687 99.7925 -7.44369 99.7842 -7.46992C99.7288 -7.62447 99.6335 -7.76158 99.5079 -7.86725C99.3823 -7.97293 99.2309 -8.04339 99.0691 -8.07145C89.7029 -10.0679 80.2561 -11.9389 70.7557 -13.1545C68.9968 -13.3755 66.575 -13.9024 64.3312 -13.9372C62.8086 -13.954 61.3623 -13.7532 60.2588 -13.0569C58.2171 -11.7671 56.5781 -8.74519 55.1578 -6.86639C48.0288 2.62982 41.3179 12.4696 34.8185 22.4192C31.6506 27.2345 28.5524 32.0935 25.6727 37.083C24.2045 39.6311 21.5904 43.1271 21.2893 46.1664C21.158 47.4737 21.8575 48.4372 23.0722 49.1475C24.2869 49.8579 25.8956 50.289 27.8147 50.5779C28.2134 49.8961 28.5842 49.2945 28.8203 48.8571C29.4908 47.616 31.3778 48.7256 30.7139 49.9653C30.6776 50.0307 30.6435 50.0998 30.6072 50.1652C30.62 50.1874 30.6481 50.1761 30.654 50.2121L30.9278 50.8957C32.0909 50.9695 33.2766 51.0056 34.4614 51.0101C34.4494 50.985 34.4381 50.957 34.4231 50.931C34.0298 50.1685 35.1819 49.5008 35.5782 50.2642C35.7039 50.5075 35.8081 50.7608 35.933 51.007C37.3052 50.9898 38.6353 50.9425 39.8564 50.8817L39.6882 50.5518C39.2985 49.7871 40.4506 49.1195 40.8403 49.8842L41.3102 50.8049C42.0192 50.7633 42.6555 50.7242 43.2185 50.6904C42.8608 51.2893 42.4793 51.8724 42.1514 52.4886L42.7692 53.6868C43.1589 54.4515 42.0067 55.1192 41.6171 54.3545L41.4135 53.9463C40.9242 54.9198 40.437 55.8971 39.9684 56.8637C39.8021 57.204 39.6533 57.549 39.4907 57.8873C40.1259 58.483 39.9129 59.8154 38.8054 59.7909L38.6105 59.7825C37.0112 63.1936 35.4772 66.6411 34.0341 70.1348L35.8969 70.6339Z" fill="#1A1A1A"/>
<path d="M87.2861 15.1734C87.2485 14.7065 87.2551 14.2263 87.2181 13.7689C86.0058 14.7897 84.7943 15.8075 83.578 16.8429C83.6351 17.459 83.6636 18.0769 83.7244 18.6909C83.8153 19.5195 82.6755 19.4988 82.4235 18.8743C82.3354 18.666 82.2509 18.4557 82.1657 18.2482C82.1453 18.1958 82.1884 18.1635 82.1709 18.1119C80.8581 19.2664 79.5578 20.4326 78.27 21.6104C78.2878 21.8593 78.2932 22.108 78.3139 22.3576C78.3683 23.0888 77.4455 23.1576 77.1206 22.6418C75.8298 23.8387 74.5911 25.0746 73.324 26.2997C73.3543 26.8993 73.3501 27.499 73.392 28.1017C73.4501 28.959 72.1164 28.9615 72.0596 28.1108C72.0479 27.9324 72.0495 27.7513 72.0378 27.573C70.8516 28.7416 69.6452 29.8922 68.4922 31.0885C68.5183 31.5469 68.389 32.0006 68.1252 32.3764C68.0171 32.4817 67.8746 32.5444 67.724 32.5529C67.5734 32.5614 67.4247 32.5152 67.3054 32.4228C66.968 33.3901 68.2477 34.4652 69.0972 33.5725C69.5748 33.0746 70.1021 32.5901 70.5884 32.0945C76.1975 26.3437 82.1502 20.9102 88.314 15.7054C88.2142 15.7634 88.1014 15.7952 87.9861 15.7979C87.8708 15.8007 87.7566 15.7744 87.6541 15.7214C87.5517 15.6683 87.4642 15.5903 87.3999 15.4946C87.3356 15.3988 87.2965 15.2883 87.2861 15.1734Z" fill="#1A1A1A"/>
<path d="M77.6588 41.8186C77.0694 41.6825 76.4709 41.5222 75.8762 41.3941C74.5875 41.1114 74.0252 42.9416 75.1031 43.4151C74.9911 42.6653 76.1509 42.3658 76.3782 43.1527C76.4398 43.3664 76.4779 43.5863 76.5396 43.8C77.7967 44.0836 79.0559 44.3709 80.3079 44.697C80.7283 44.8097 81.1396 44.9449 81.5593 45.0605C81.8104 45.1278 82.0552 45.2184 82.3076 45.2923C82.9295 45.4589 83.5383 45.6627 84.1487 45.8607C83.4543 46.5603 82.7802 47.2777 82.1001 47.9936C81.7262 48.3848 81.3414 48.7698 80.9725 49.1654C80.0675 50.1371 79.1814 51.1201 78.3046 52.115C78.3328 52.3134 78.3809 52.5078 78.4061 52.7055C78.5085 53.4213 77.6202 53.7466 77.2765 53.3009C76.2386 54.4998 75.1848 55.6883 74.1765 56.917L74.4123 58.3728C74.5595 59.2133 73.2747 59.57 73.1283 58.7266C73.1028 58.5883 73.081 58.4479 73.0554 58.3096C72.0132 59.595 70.966 60.9104 69.9494 62.2402C70.0113 62.5697 70.0557 62.8945 70.1235 63.2256C70.28 64.0311 69.1174 64.3643 68.8825 63.641C67.5823 65.3789 66.3022 67.1315 65.0421 68.8988L65.1615 70.5205C65.2209 71.3501 63.9977 71.3603 63.8596 70.591C62.9911 71.8353 62.1377 73.0931 61.2873 74.3517L61.5695 76.1828C61.7006 77.0253 60.4158 77.382 60.2856 76.5367C60.2537 76.3403 60.224 76.1477 60.195 75.9522C59.9701 76.2894 59.751 76.6281 59.5283 76.969L61.7414 77.562C69.1992 66.3013 77.3796 55.4972 86.925 46.1039C87.5572 45.4847 87.1961 44.5431 86.4404 44.2686C85.5126 43.9355 84.56 43.6834 83.616 43.3992C81.6528 42.8001 79.667 42.2732 77.6588 41.8186Z" fill="#1A1A1A"/>
<path d="M38.785 59.7854C39.8895 59.8091 40.1055 58.4775 39.4703 57.8817L39.3971 57.8277C39.2192 57.6822 38.9974 57.6007 38.7675 57.5964L38.75 57.5917L38.7916 57.6936C39.0815 58.5036 37.7933 58.85 37.5047 58.0466C37.4502 57.8881 37.3779 57.7373 37.3168 57.5801C35.9663 57.575 34.5589 57.5484 33.1525 57.425C33.0783 57.4955 32.9894 57.5487 32.8922 57.5809C32.795 57.6131 32.6919 57.6234 32.5903 57.6111C32.4886 57.5988 32.391 57.5642 32.3042 57.5098C32.2175 57.4554 32.1439 57.3825 32.0886 57.2964C30.9764 57.1722 29.8877 56.889 28.856 56.4552C27.6919 55.918 28.0663 55.502 28.5075 54.381C28.561 54.2514 28.6283 54.1286 28.6818 53.999C29.0163 53.2061 29.3864 52.4322 29.7849 51.669L29.3431 50.5618C29.0334 49.7904 30.2252 49.4651 30.5823 50.1647C30.6186 50.0993 30.6527 50.0302 30.689 49.9649C31.3587 48.7267 29.4718 47.6171 28.7954 48.8566C28.5593 49.2941 28.2031 49.8996 27.7898 50.5774C27.1988 51.5619 26.6909 52.594 26.2715 53.6629C25.7287 55.1166 25.5325 56.5379 26.368 57.4722C27.3706 58.5888 29.2974 58.9424 30.6799 59.1783C33.2856 59.6261 35.9413 59.7119 38.5792 59.7709L38.785 59.7854Z" fill="#1A1A1A"/>
<path d="M82.1739 18.1127C82.1826 18.162 82.1512 18.1974 82.1686 18.249C82.2539 18.4564 82.3383 18.6668 82.4265 18.8751C82.6843 19.5012 83.8183 19.5203 83.7273 18.6917C83.6666 18.0777 83.6381 17.4598 83.581 16.8437C83.2984 13.8108 83.0357 10.7738 82.8559 7.73082C82.8482 7.61924 82.7759 7.5623 82.7318 7.48163C82.4375 6.93337 81.4796 6.99278 81.5235 7.73993C81.5349 7.97768 81.5654 8.21429 81.5805 8.44991C81.7678 11.523 82.019 14.5914 82.3121 17.6553C82.2501 17.7121 82.2046 17.7846 82.1803 17.865C82.156 17.9455 82.1537 18.0311 82.1739 18.1127Z" fill="#1A1A1A"/>
<path d="M77.1235 22.6426C77.4484 23.1584 78.3713 23.0896 78.3168 22.3584C78.2961 22.1087 78.2908 21.8601 78.2729 21.6112C78.0341 18.2594 77.9261 14.9019 77.9489 11.5387C77.9493 11.4324 77.943 11.3275 77.9454 11.2249C77.9533 10.3664 76.6092 10.3724 76.613 11.234C76.608 11.7083 76.6294 12.1772 76.6294 12.656C76.6306 15.8983 76.7338 19.1335 76.9815 22.3667C76.9927 22.4886 77.0704 22.5721 77.1235 22.6426Z" fill="#1A1A1A"/>
<path d="M72.05 28.1114C72.1069 28.9622 73.4406 28.9597 73.3825 28.1023C73.3405 27.4996 73.3448 26.8999 73.3145 26.3004C73.1292 22.7177 73.0933 19.1375 73.2622 15.5527C73.2817 15.4797 73.2662 15.3974 73.2675 15.3226C73.3127 14.4648 71.9795 14.4768 71.9351 15.3317C71.9125 15.8013 71.9252 16.2679 71.9077 16.742C71.775 20.3552 71.8031 23.9646 72.0283 27.5736C72.0407 27.749 72.0392 27.9301 72.05 28.1114Z" fill="#1A1A1A"/>
<path d="M68.1157 32.377C68.3794 32.0012 68.5087 31.5474 68.4827 31.089C68.5101 30.1576 68.2518 29.0776 68.1929 28.3515L67.6104 21.1826C67.6 21.0577 67.5212 20.9897 67.4662 20.903C67.1405 20.3901 66.2177 20.4589 66.278 21.1917C66.2991 21.4633 66.3194 21.7379 66.3434 22.0103L66.7275 26.7665L66.9197 29.1557C66.9478 29.4949 67.0684 30.8196 67.1361 31.2446L67.0614 31.3247C67.0174 31.3723 67.0293 31.4444 66.9896 31.4995C66.9144 31.6165 66.8802 31.7552 66.8924 31.8938C66.9045 32.0324 66.9623 32.1631 67.0566 32.2653L67.1692 32.3706C67.1988 32.4004 67.2539 32.3933 67.2901 32.4218C67.4096 32.516 67.5593 32.5634 67.7113 32.5552C67.8633 32.5469 68.007 32.4836 68.1157 32.377Z" fill="#1A1A1A"/>
<path d="M62.7986 25.9203C62.7012 25.8686 62.5921 25.8426 62.4818 25.8449C62.3716 25.8472 62.2637 25.8776 62.1685 25.9333C62.0733 25.989 61.9939 26.0681 61.9379 26.1632C61.8819 26.2582 61.8511 26.366 61.8485 26.4762C61.8473 26.6793 61.8784 26.8785 61.8809 27.0795C61.9035 28.3632 62.0514 29.6417 62.3226 30.8967C62.3735 31.1388 62.3942 31.3884 62.4568 31.6336C62.6628 32.4649 63.9489 32.1148 63.7408 31.2798C63.7173 31.1922 63.7137 31.1005 63.6932 31.0136C63.3402 29.5242 63.1714 27.9971 63.1905 26.4665C63.1942 26.3451 63.1578 26.2258 63.087 26.1271C63.0162 26.0283 62.9148 25.9557 62.7986 25.9203Z" fill="#1A1A1A"/>
<path d="M77.1231 53.0439C77.1401 53.1674 77.2185 53.2135 77.2766 53.2885C77.6227 53.7255 78.4969 53.4058 78.4063 52.6931C78.381 52.4954 78.3329 52.301 78.3048 52.1026C78.2586 51.7961 78.1947 51.4973 78.1448 51.1929C77.7486 48.6969 77.2137 46.2249 76.5427 43.7883C76.481 43.5747 76.4429 43.3548 76.3812 43.1411C76.154 42.3542 74.997 42.6544 75.1062 43.4034C75.0976 43.4355 75.0913 43.4589 75.0827 43.491C75.1686 43.7894 75.2338 44.0948 75.3102 44.3938C76.0644 47.1287 76.647 49.9082 77.0546 52.7158C77.0805 52.8291 77.108 52.9366 77.1231 53.0439Z" fill="#1A1A1A"/>
<path d="M73.1431 58.718C73.2895 59.5615 74.5771 59.2056 74.4271 58.3642L74.1912 56.9085L74.1744 56.8195L72.5811 47.5835C72.571 47.5276 72.5602 47.4746 72.553 47.4195C72.4066 46.576 71.1198 46.9291 71.2669 47.7696L71.4601 48.8822C72.0012 52.0251 72.5417 55.1658 73.0819 58.3042C73.0944 58.4327 73.1176 58.5798 73.1431 58.718Z" fill="#1A1A1A"/>
<path d="M68.8832 63.6381C69.1182 64.3614 70.2808 64.0283 70.1242 63.2227C70.0565 62.8917 70.0121 62.5668 69.9502 62.2373C69.3496 59.0128 68.8652 55.7756 68.563 52.5121C68.4768 51.6659 67.1496 51.6671 67.2306 52.5212C67.2781 53.0096 67.3521 53.4925 67.4055 53.9825C67.753 57.2049 68.2132 60.4044 68.835 63.5845C68.8566 63.6091 68.8895 63.6148 68.8832 63.6381Z" fill="#1A1A1A"/>
<path d="M63.872 70.5912C64.0072 71.3597 65.2333 71.3503 65.1739 70.5207L65.0546 68.8991L64.2609 58.1969C64.2672 58.1735 64.2726 58.1531 64.2548 58.1264C64.1913 57.277 62.8584 57.2766 62.9224 58.1355C62.9645 58.7101 63.0066 59.2847 63.0488 59.8592L63.8415 70.5299C63.844 70.5556 63.8666 70.5647 63.872 70.5912Z" fill="#1A1A1A"/>
<path d="M60.3009 76.5377C60.4311 77.3831 61.7158 77.0263 61.5848 76.1839L61.3148 74.3653C60.8274 71.2327 60.3416 68.1015 59.8576 64.9718C59.8327 64.8612 59.7691 64.7631 59.6782 64.6953C59.573 64.6035 59.4419 64.5467 59.303 64.5326C59.1642 64.5185 59.0243 64.5478 58.9029 64.6166C58.7814 64.6854 58.6843 64.7902 58.6249 64.9165C58.5656 65.0428 58.5469 65.1845 58.5715 65.3219L58.6949 66.1342L60.2118 75.9474C60.2392 76.1488 60.269 76.3414 60.3009 76.5377Z" fill="#1A1A1A"/>
<path d="M56.9421 76.273L56.0309 70.7277C56.0034 70.6075 55.9326 70.5017 55.8321 70.4304C55.7243 70.3461 55.5937 70.2965 55.4572 70.288C55.3208 70.2795 55.1849 70.3124 55.0676 70.3826C54.9502 70.4528 54.8568 70.5568 54.7998 70.681C54.7427 70.8053 54.7245 70.9439 54.7477 71.0786L54.8834 71.9036L55.5494 75.8998L56.9421 76.273Z" fill="#1A1A1A"/>
<path d="M29.3481 50.5663L29.79 51.6735L30.7288 54.0092L32.0094 57.2063C32.0277 57.255 32.076 57.2617 32.0995 57.3024C32.1548 57.3886 32.2284 57.4615 32.3151 57.5159C32.4019 57.5703 32.4995 57.6049 32.6012 57.6172C32.7028 57.6295 32.8059 57.6191 32.9031 57.587C33.0003 57.5548 33.0892 57.5015 33.1634 57.431C33.2454 57.3628 33.3026 57.2693 33.3259 57.1652C33.3493 57.0611 33.3376 56.9522 33.2926 56.8554C32.901 55.8722 32.5081 54.8897 32.1141 53.9079L30.9138 50.9013L30.64 50.2177C30.6455 50.1973 30.606 50.193 30.5932 50.1708C30.2303 49.4696 29.0385 49.7949 29.3481 50.5663Z" fill="#1A1A1A"/>
<path d="M37.3334 57.5877C37.3887 57.7434 37.461 57.8942 37.5214 58.0543C37.8099 58.8576 39.0982 58.5112 38.8082 57.7013L38.7667 57.5994C38.2303 56.0975 37.6105 54.6265 36.9553 53.1711C36.6242 52.4565 36.2814 51.7388 35.9299 51.0187C35.8049 50.7725 35.7007 50.5192 35.575 50.2759C35.1787 49.5125 34.0369 50.1767 34.42 50.9427C34.4349 50.9686 34.4462 50.9967 34.4582 51.0218C34.8716 51.8148 35.2371 52.6231 35.6084 53.4329C36.2067 54.7855 36.8022 56.1718 37.3334 57.5877Z" fill="#1A1A1A"/>
<path d="M40.9231 53.02L41.393 53.9408L41.5966 54.349C41.9863 55.1137 43.1347 54.4482 42.7487 53.6813L42.131 52.4831L41.2757 50.8051L40.8058 49.8843C40.4161 49.1196 39.2677 49.7851 39.6537 50.552L39.8219 50.8818L40.5437 52.2988L40.9231 53.02Z" fill="#1A1A1A"/>
<path d="M42.3488 21.6206C38.1621 27.5131 34.375 33.6795 31.013 40.0785C30.3658 41.3258 32.2578 42.4399 32.9058 41.1897C36.2678 34.7907 40.0549 28.6242 44.2416 22.7317C45.0514 21.5781 43.1576 20.4823 42.3488 21.6206Z" fill="#1A1A1A"/>
<path d="M47.7465 17.1493L47.4808 17.0781C46.1202 16.7136 45.5538 18.8274 46.9144 19.192L47.1801 19.2632C48.5393 19.6211 49.107 17.5139 47.7465 17.1493Z" fill="#1A1A1A"/>
<path d="M45.3662 96.3971C46.3667 95.0693 47.3755 93.7217 48.3928 92.3545C48.3556 92.2131 48.3121 92.0481 48.298 91.9724C48.1636 91.201 48.0255 90.4317 47.888 89.672L47.0031 84.5656C45.947 86.323 44.8941 88.0687 43.8503 89.8387C43.7884 89.941 43.7295 90.0441 43.6677 90.1465C43.7056 90.2036 43.7677 90.2171 43.7892 90.2886C44.4013 92.302 44.9117 94.3446 45.3662 96.3971Z" fill="#FFE761"/>
<path d="M48.2283 83.9175L49.4596 90.9192C50.3479 89.7218 51.2395 88.5161 52.1344 87.3017C51.9668 86.584 51.7374 85.8404 51.6877 85.5704C51.5284 84.7517 51.3752 83.922 51.212 83.1179L50.4154 78.9552C49.4867 80.4588 48.5589 81.9595 47.6428 83.4633C47.7112 83.4537 47.7808 83.4579 47.8476 83.4757C47.9143 83.4934 47.9768 83.5244 48.0314 83.5668C48.086 83.6091 48.1316 83.662 48.1654 83.7222C48.1992 83.7824 48.2206 83.8488 48.2283 83.9175Z" fill="#FFE761"/>
<path d="M22.8264 116.669C22.2853 119.588 22.071 121.696 22.3357 122.565C22.5033 123.107 23.1465 122.879 24.158 122.07C24.1302 122.022 24.0765 121.989 24.0569 121.934C23.458 120.228 23.0455 118.463 22.8264 116.669Z" fill="#FFE761"/>
<path d="M33.2548 112.015C33.0747 111.169 32.8652 110.328 32.7021 109.476C31.9325 110.901 31.1527 112.316 30.3969 113.747C30.5066 114.202 30.5934 114.66 30.7031 115.115C31.5074 114.157 32.3675 113.108 33.2548 112.015Z" fill="#FFE761"/>
<path d="M40.0413 103.401C39.6223 101.717 39.2417 100.024 38.8993 98.3193C38.1809 99.5757 37.4784 100.843 36.768 102.104L37.8511 106.237C38.5631 105.316 39.2932 104.371 40.0413 103.401Z" fill="#FFE761"/>
<path d="M44.2992 97.8103C43.8706 95.7428 43.3721 93.6909 42.7764 91.6631C41.8107 93.3049 40.8485 94.9497 39.8896 96.5975C40.2337 98.4275 40.6239 100.249 41.0602 102.062C42.1227 100.682 43.2023 99.2647 44.2992 97.8103Z" fill="#FFE761"/>
<path d="M36.8089 107.557L35.8247 103.779C35.102 105.075 34.3843 106.375 33.6716 107.68C33.8585 108.688 34.1219 109.679 34.3281 110.673C35.1298 109.682 35.9567 108.643 36.8089 107.557Z" fill="#FFE761"/>
<path d="M57.5464 79.9272C57.812 79.5665 58.071 79.2072 58.3337 78.8458C58.7379 78.2249 59.1341 77.5988 59.5412 76.9788L56.9398 76.2817C57.1463 77.4886 57.3485 78.7038 57.5464 79.9272Z" fill="#FFE761"/>
<path d="M33.2482 77.7975C30.6013 86.6015 27.8 96.2621 25.6782 104.403C25.3086 107.022 25.1091 109.662 25.0811 112.307C25.0321 114.401 25.1607 116.496 25.4656 118.568C30.7742 108.099 36.546 97.817 42.5514 87.7256C45.1592 83.3423 47.8243 78.9431 50.5711 74.5783L35.8937 70.6455C34.9783 73.0226 34.1029 75.4136 33.2482 77.7975Z" fill="#FFE761"/>
<path d="M53.1803 85.8859C54.2744 84.3954 55.3663 82.9053 56.456 81.4156C56.1521 79.5755 55.8451 77.7356 55.5348 75.8959L52.7757 75.1566C52.329 75.8661 51.8873 76.5802 51.4404 77.3022L52.8839 84.8082C52.9472 85.0975 53.0576 85.4681 53.1803 85.8859Z" fill="#FFE761"/>
<path d="M28.0966 113.76C28.1301 113.493 28.2542 113.246 28.4483 113.059C28.6423 112.873 28.8943 112.759 29.1623 112.737C29.4993 112.449 30.0918 112.445 30.2305 113.001C30.2894 113.249 30.3351 113.499 30.3969 113.747C31.1527 112.316 31.9325 110.901 32.7021 109.477C32.5721 108.794 32.3824 108.124 32.259 107.44C32.1052 106.6 33.39 106.244 33.5422 107.089C33.5799 107.287 33.6346 107.48 33.6716 107.68C34.3842 106.375 35.1019 105.075 35.8246 103.779L35.3812 102.071C35.1665 101.237 36.4496 100.886 36.6651 101.717L36.7671 102.107C37.4775 100.846 38.18 99.5786 38.8984 98.3222C38.7726 97.694 38.6079 97.0709 38.5041 96.4423C38.3474 95.6023 39.6313 95.2485 39.7872 96.0914C39.8203 96.2598 39.8637 96.4248 39.8953 96.5991C40.8469 94.9473 41.8092 93.3025 42.7821 91.6647C42.6822 91.325 42.6028 90.9908 42.4971 90.6496C42.2663 89.8993 43.2848 89.5901 43.6624 90.1544C43.7243 90.0521 43.7832 89.949 43.845 89.8466C44.885 88.0912 45.9395 86.3397 46.9979 84.5736L46.9456 84.278C46.9291 84.1776 46.9351 84.0749 46.9632 83.9772C46.9914 83.8795 47.041 83.7893 47.1085 83.7132C47.176 83.6371 47.2596 83.5771 47.3532 83.5374C47.4468 83.4978 47.5481 83.4795 47.6497 83.484C48.56 81.9786 49.4878 80.4779 50.4223 78.9759L50.1195 77.4083C49.9561 76.5697 51.2409 76.213 51.4026 77.0574C51.4181 77.1398 51.4336 77.2222 51.452 77.3054C51.8966 76.5921 52.3382 75.878 52.7873 75.1597L50.5859 74.5698C47.8508 78.9378 45.174 83.3338 42.5662 87.7171C36.5608 97.8085 30.795 108.08 25.4804 118.56C25.1755 116.487 25.0469 114.393 25.0959 112.298C25.1239 109.653 25.3234 107.013 25.693 104.394C26.6172 97.6163 28.5456 90.945 30.8469 84.5519C31.6385 82.3451 32.4437 80.0761 33.263 77.789C34.1146 75.4168 34.9899 73.0258 35.9085 70.637L34.0253 70.1324C31.9118 75.2521 29.9469 80.4366 28.1442 85.6459C25.1224 94.3775 21.4277 106.496 22.8381 116.672C23.0571 118.466 23.4697 120.231 24.0686 121.937C24.0882 121.992 24.1419 122.025 24.1696 122.073C24.5598 122.766 25.643 123.056 26.0687 122.204C26.5551 121.229 27.063 120.279 27.5621 119.293C27.6785 117.387 27.8852 115.518 28.0966 113.76Z" fill="#1A1A1A"/>
<path d="M59.5436 76.97C59.1373 77.5871 58.7411 78.2132 58.3361 78.837L57.5667 80.0265C57.7081 80.8613 57.8483 81.6969 57.9872 82.5331C58.1248 83.3742 56.8438 83.7288 56.7004 82.8862C56.6331 82.4832 56.5658 82.0803 56.5014 81.6781C55.4506 83.3263 54.4129 84.9801 53.3883 86.6395C53.6717 87.7074 53.873 88.8598 53.3923 89.4976C53.3393 89.5842 53.2674 89.6578 53.1821 89.7129C53.0968 89.7679 53.0002 89.8031 52.8994 89.8158C52.7986 89.8285 52.6963 89.8183 52.6 89.7861C52.5037 89.7538 52.4159 89.7003 52.3431 89.6296L52.2178 89.4896C52.0967 89.3634 52.0293 89.1949 52.0301 89.0199C52.0308 88.8449 52.0996 88.6771 52.2219 88.5519L52.2731 88.5124C52.2802 88.4862 52.2857 88.4657 52.2935 88.4365C51.4637 89.7893 50.6418 91.14 49.8277 92.4886C50.1204 93.5684 50.4275 94.8398 49.9831 95.5876C49.8901 95.7361 49.7439 95.8434 49.5744 95.8876C49.4049 95.9318 49.2249 95.9095 49.0713 95.8252L48.9266 95.7582C48.8004 95.6851 48.7019 95.5724 48.6463 95.4375C48.5908 95.3027 48.5813 95.1533 48.6194 95.0125L48.6507 94.8957C48.6797 94.7877 48.7726 94.7563 48.8354 94.6855C48.8541 94.5093 48.847 94.3313 48.8142 94.1572C48.2609 95.0541 47.7236 95.9616 47.191 96.8516C46.7615 97.5783 46.3401 98.3103 45.9107 99.037C45.9755 99.3673 46.0462 99.6992 46.1139 100.03C46.1406 100.17 46.1214 100.315 46.0591 100.443C45.9968 100.572 45.8948 100.676 45.7682 100.742C45.6417 100.808 45.4973 100.831 45.3566 100.808C45.2159 100.784 45.0864 100.717 44.9874 100.614C43.9955 102.307 43.0014 103.997 42.0225 105.7C42.164 106.223 42.2849 106.753 42.436 107.275C42.6743 108.102 41.389 108.45 41.1491 107.628L41.0824 107.363C40.404 108.552 39.7322 109.739 39.0647 110.934L39.7423 113.544C39.9607 114.376 38.6746 114.726 38.4583 113.898L38.1201 112.602C37.3042 114.071 36.5102 115.551 35.7111 117.026C35.8494 117.608 35.9422 118.196 36.0901 118.777C36.3019 119.61 35.0158 119.96 34.804 119.127C34.7807 119.027 34.7649 118.923 34.7387 118.822C33.9825 120.231 33.2263 121.64 32.4877 123.054C32.5744 123.477 32.6855 123.892 32.7751 124.317C32.8076 124.466 32.7868 124.622 32.7164 124.757C32.6459 124.892 32.5303 124.999 32.3895 125.058C32.2487 125.117 32.0917 125.125 31.9458 125.08C31.7999 125.035 31.6742 124.941 31.5907 124.813C31.0767 125.789 30.5729 126.766 30.0794 127.744C29.4427 124.444 29.5504 120.877 29.872 117.493C29.5557 116.116 29.2836 114.725 28.9437 113.354C28.9142 113.241 28.9192 113.122 28.9582 113.012C28.9972 112.902 29.0683 112.806 29.1623 112.737C28.8944 112.759 28.6423 112.873 28.4483 113.059C28.2543 113.246 28.1301 113.493 28.0966 113.759C27.8852 115.518 27.6785 117.387 27.5534 119.291C27.2838 123.286 27.3787 127.452 28.6962 131.072C28.9899 131.88 30.2397 132.249 30.6934 131.338C36.1791 120.325 42.2128 109.556 48.478 98.9739C52.7192 91.8113 57.099 84.5983 61.7596 77.5638L59.5436 76.97Z" fill="#1A1A1A"/>
<path d="M56.9421 76.273L55.5348 75.8959C55.8431 77.7351 56.1501 79.575 56.456 81.4156C56.4707 81.5009 56.4846 81.5891 56.5022 81.6752C56.5666 82.0774 56.6338 82.4803 56.7011 82.8833C56.8446 83.7259 58.1344 83.3737 57.988 82.5302C57.8416 81.6868 57.7096 80.8597 57.5675 80.0236L57.5495 79.9155C57.349 78.7019 57.1465 77.4877 56.9421 76.273Z" fill="#1A1A1A"/>
<path d="M52.8839 84.8082L51.4544 77.2966C51.436 77.2134 51.4205 77.131 51.405 77.0486C51.2432 76.2042 49.9702 76.564 50.1218 77.3995L50.4154 78.9552L51.2143 83.1091C51.3744 83.925 51.5307 84.7429 51.69 85.5617C51.7397 85.8316 51.9692 86.5753 52.1367 87.293C52.2307 87.6601 52.2809 88.037 52.2865 88.4159C52.2787 88.445 52.2732 88.4655 52.2661 88.4918L52.2149 88.5312C52.0926 88.6564 52.0238 88.8243 52.0231 88.9993C52.0223 89.1743 52.0897 89.3427 52.2108 89.4689L52.3361 89.6089C52.4089 89.6797 52.4967 89.7331 52.593 89.7654C52.6893 89.7976 52.7916 89.8078 52.8924 89.7951C52.9932 89.7825 53.0898 89.7473 53.1751 89.6922C53.2604 89.6371 53.3323 89.5636 53.3853 89.477C53.869 88.8399 53.6679 87.6751 53.3813 86.6188C53.3131 86.3596 53.2433 86.1062 53.1725 85.8682C53.0576 85.4681 52.9472 85.0974 52.8839 84.8082Z" fill="#1A1A1A"/>
<path d="M49.4596 90.9192L48.2283 83.9175C48.2193 83.8501 48.1971 83.7851 48.163 83.7263C48.1288 83.6675 48.0834 83.616 48.0294 83.5748C47.9753 83.5336 47.9136 83.5034 47.8479 83.4861C47.7821 83.4687 47.7136 83.4645 47.6462 83.4736C47.5447 83.4692 47.4434 83.4874 47.3497 83.5271C47.2561 83.5667 47.1725 83.6268 47.105 83.7029C47.0376 83.779 46.9879 83.8691 46.9598 83.9668C46.9316 84.0645 46.9256 84.1673 46.9422 84.2676L46.9944 84.5632L47.8912 89.6602C48.0256 90.4316 48.1637 91.2009 48.3012 91.9606C48.3153 92.0364 48.3587 92.2014 48.396 92.3428C48.5227 92.8274 48.7189 93.5434 48.8167 94.136C48.8495 94.3101 48.8567 94.4881 48.8379 94.6642C48.7751 94.735 48.688 94.768 48.6533 94.8745L48.622 94.9913C48.5839 95.1321 48.5933 95.2815 48.6489 95.4163C48.7044 95.5512 48.8029 95.6639 48.9291 95.737L49.0739 95.804C49.2275 95.8882 49.4075 95.9106 49.577 95.8664C49.7465 95.8222 49.8927 95.7148 49.9856 95.5663C50.4308 94.8157 50.123 93.5472 49.8302 92.4674C49.7046 92.0018 49.5844 91.5628 49.5365 91.2277L49.4596 90.9192Z" fill="#1A1A1A"/>
<path d="M43.7805 90.2862C43.759 90.2147 43.6969 90.2012 43.659 90.1441C43.2814 89.5797 42.2628 89.8889 42.4937 90.6392C42.5994 90.9804 42.6788 91.3147 42.7787 91.6543C43.372 93.6909 43.8758 95.7348 44.3015 97.8016C44.4792 98.6566 44.6797 99.5083 44.8302 100.372C44.8488 100.489 44.9279 100.532 44.9869 100.604C45.0859 100.707 45.2154 100.775 45.356 100.798C45.4967 100.821 45.6411 100.798 45.7677 100.732C45.8943 100.667 45.9963 100.562 46.0586 100.434C46.1208 100.306 46.1401 100.161 46.1134 100.021C46.0573 99.6928 45.9779 99.3585 45.9101 99.0275C45.7461 98.1448 45.5629 97.2634 45.3681 96.3788C44.9118 94.3445 44.4014 92.302 43.7805 90.2862Z" fill="#1A1A1A"/>
<path d="M39.8954 96.599C39.8631 96.4277 39.8189 96.2656 39.7873 96.0913C39.6314 95.2484 38.3533 95.6038 38.5042 96.4422C38.6196 97.074 38.7727 97.6939 38.8985 98.3222C39.2433 100.025 39.624 101.719 40.0405 103.404C40.364 104.742 40.702 106.05 41.0796 107.362L41.1462 107.627C41.3861 108.449 42.6714 108.102 42.4331 107.274C42.282 106.752 42.1612 106.222 42.0197 105.699C41.6895 104.49 41.3565 103.28 41.066 102.064C40.6317 100.251 40.2414 98.4296 39.8954 96.599Z" fill="#1A1A1A"/>
<path d="M36.7671 102.107L36.6651 101.717C36.4496 100.886 35.1665 101.237 35.3812 102.071L35.8247 103.779L36.8089 107.557L38.1171 112.602L38.4553 113.897C38.6716 114.725 39.9577 114.375 39.7393 113.543L39.0617 110.933L37.8446 106.226L36.7671 102.107Z" fill="#1A1A1A"/>
<path d="M33.6716 107.68C33.6346 107.479 33.58 107.286 33.5422 107.089C33.39 106.244 32.1082 106.601 32.2591 107.439C32.3883 108.125 32.5692 108.793 32.7021 109.476C32.8652 110.328 33.0747 111.169 33.2548 112.015C33.7312 114.29 34.1687 116.569 34.7358 118.821C34.7619 118.922 34.7778 119.026 34.801 119.126C35.0128 119.959 36.2989 119.609 36.0871 118.776C35.9305 118.193 35.8465 117.607 35.7081 117.026C35.1951 114.923 34.7585 112.803 34.3249 110.684C34.1219 109.679 33.8585 108.688 33.6716 107.68Z" fill="#1A1A1A"/>
<path d="M30.397 113.747C30.3352 113.499 30.2895 113.249 30.2306 113.001C30.0919 112.445 29.4994 112.449 29.1624 112.737C29.0683 112.806 28.9972 112.902 28.9582 113.012C28.9193 113.122 28.9142 113.241 28.9437 113.354C29.2836 114.725 29.5557 116.116 29.872 117.493C30.4214 119.881 30.9972 122.263 31.4803 124.664C31.4952 124.737 31.5528 124.756 31.582 124.81C31.6655 124.938 31.7911 125.033 31.9371 125.077C32.083 125.122 32.24 125.114 32.3808 125.055C32.5216 124.996 32.6372 124.89 32.7077 124.755C32.7781 124.619 32.7989 124.463 32.7664 124.314C32.6826 123.891 32.5715 123.477 32.479 123.051C31.9369 120.402 31.3268 117.751 30.6973 115.113C30.5935 114.66 30.5066 114.202 30.397 113.747Z" fill="#1A1A1A"/>
</svg>
