<svg width="81" height="156" viewBox="0 0 81 156" fill="none" xmlns="http://www.w3.org/2000/svg">
<path d="M12.7967 17.64C11.9177 16.9095 11.0921 16.2589 10.331 15.7046C12.7187 19.8672 15.0528 24.0614 17.2903 28.3028C17.9601 29.5714 18.6307 30.8483 19.3021 32.1335L24.6402 30.7032C20.9208 26.147 16.9677 21.7867 12.7967 17.64Z" fill="#EA90A6"/>
<path d="M7.63124 13.9988C7.31278 13.836 6.98069 13.7014 6.63876 13.5965C6.63876 13.5965 10.4663 23.2125 14.7194 33.3614L17.8231 32.5298C14.6248 26.2452 11.2029 20.0698 7.63124 13.9988Z" fill="#EA90A6"/>
<path d="M7.02155 10.1566L7.07798 10.1977C7.06005 10.1828 7.0412 10.1691 7.02155 10.1566Z" fill="#1A1A1A"/>
<path d="M19.3021 32.1335C18.6323 30.8492 17.9618 29.5723 17.2903 28.3028C15.0528 24.0613 12.7187 19.8672 10.331 15.7045C10.1462 15.3828 9.96031 15.062 9.77325 14.7423C10.7956 15.6957 11.8014 16.6515 12.7967 17.64C16.971 21.7856 20.9275 26.1449 24.6502 30.7005L26.235 30.2758C23.6033 27.0332 20.8791 23.8775 18.0423 20.8527C14.2296 17.5516 10.3234 14.3571 6.24606 11.4354C6.15885 11.3718 6.08548 11.2912 6.03039 11.1984C5.9753 11.1056 5.93965 11.0025 5.9256 10.8955C5.91155 10.7885 5.91939 10.6797 5.94865 10.5758C5.97791 10.472 6.02798 10.3751 6.09582 10.2911C6.03736 10.3486 5.98864 10.4152 5.95158 10.4883C5.93988 10.5086 5.92564 10.5274 5.91447 10.5497C5.9033 10.5719 5.89895 10.6117 5.89046 10.6439C5.86539 10.7299 5.85969 10.8204 5.87376 10.9088C5.88783 10.9973 5.92133 11.0815 5.97184 11.1555C6.53566 12.0926 7.07565 13.0446 7.62855 13.9889C11.2002 20.0598 14.6221 26.2352 17.8205 32.5198L19.3021 32.1335Z" fill="#1A1A1A"/>
<path d="M6.24603 11.4354C10.3233 14.3571 14.2296 17.5517 18.0322 20.8554C20.4373 22.9456 22.8033 25.0713 25.1303 27.2324C26.0516 28.0887 26.9532 28.9674 27.8618 29.8399L29.5566 29.3858C28.4382 28.306 27.3214 27.2236 26.1834 26.1662C20.1257 20.5301 13.8067 15.0303 7.07634 10.1934L7.02044 10.1526L6.99603 10.1335C6.92808 10.0808 6.84993 10.0429 6.76654 10.0221C6.68316 10.0012 6.59635 9.99789 6.51161 10.0123C6.42688 10.0268 6.34607 10.0587 6.27431 10.106C6.20255 10.1533 6.14139 10.215 6.09472 10.2872C6.02629 10.3713 5.97576 10.4685 5.94621 10.5728C5.91667 10.6771 5.90874 10.7864 5.9229 10.8939C5.93707 11.0014 5.97304 11.1049 6.0286 11.198C6.08416 11.2911 6.15815 11.3719 6.24603 11.4354Z" fill="#1A1A1A"/>
<path d="M49.8213 71.0956L57.0032 66.5857L45.6649 62.4266L36.9538 67.2733L49.8213 71.0956Z" fill="#EA90A6"/>
<path d="M46.1284 61.0065L56.8976 64.9604C56.2815 63.956 55.6659 62.9535 55.0244 61.9665C49.4317 55.5396 37.5945 42.1085 26.8052 30.997C34.3232 40.3482 40.9164 50.4848 46.1284 61.0065Z" fill="#EA90A6"/>
<path d="M55.8409 94.7201L65.8491 99.4391C65.54 98.8129 65.0703 97.9556 64.9982 97.7821C64.6373 96.9149 64.2664 96.0504 63.8777 95.1992C63.2459 93.8219 62.5787 92.462 61.8763 91.1194C58.4633 84.5775 54.3562 78.1551 49.5058 72.5639L37.9084 69.1168C45.3478 76.272 51.099 85.7046 55.8409 94.7201Z" fill="#EA90A6"/>
<path d="M73.1117 143.251C72.9954 143.212 72.8932 143.14 72.8181 143.043C60.3988 127.495 42.983 115.036 25.4409 105.783C25.9578 107.208 68.9882 134.121 73.9663 145.929C73.8391 145.35 73.6991 144.756 73.5535 144.157C73.4697 144.111 73.3965 144.048 73.3391 143.972C73.2818 143.896 73.2414 143.808 73.2209 143.715C73.1982 143.558 73.1489 143.406 73.1117 143.251Z" fill="#EA90A6"/>
<path d="M64.4526 125.348C66.8842 129.195 69.2154 133.131 71.3899 137.145C68.1832 126.992 63.3 117.186 58.037 108.048L48.1196 104.612C54.6766 110.448 59.8229 118.023 64.4526 125.348Z" fill="#EA90A6"/>
<path d="M59.3219 107.698C59.2052 107.807 59.2789 107.814 59.3219 107.698V107.698Z" fill="#EA90A6"/>
<path d="M60.9877 86.3001C57.9837 80.0535 54.732 73.554 52.9831 70.8803L51.0532 72.0957C54.7987 76.5117 58.1246 81.267 60.9877 86.3001Z" fill="#EA90A6"/>
<path d="M35.9227 90.1095C31.4095 81.3563 24.3755 73.3555 16.5929 67.3097C16.5929 67.3097 35.482 90.4075 36.7517 94.5785C36.9668 94.3901 37.7698 93.9094 37.8295 93.6363C37.9332 93.1523 36.3325 90.9037 35.9227 90.1095Z" fill="#EA90A6"/>
<path d="M59.4805 107.576C59.5139 107.64 59.5525 107.701 59.596 107.759L60.367 107.079C60.1811 107.185 59.9973 107.298 59.8087 107.394C59.696 107.448 59.5865 107.509 59.4805 107.576Z" fill="#EA90A6"/>
<path d="M58.4146 106.596L64.1801 102.052C64.5963 101.726 65.2016 101.371 65.5781 100.962L55.362 96.1464L46.0948 102.331L58.4146 106.596Z" fill="#EA90A6"/>
<path d="M43.7455 102.309C43.7632 102.252 43.7881 102.197 43.8196 102.146C43.8869 102.013 43.9979 101.908 44.1338 101.848L54.3081 95.0515C49.1705 85.3345 42.8941 75.173 34.4985 68.0148C34.4572 67.9693 34.4231 67.9178 34.3976 67.8619C34.3868 67.8465 34.3768 67.8306 34.3677 67.8142C34.3068 67.689 34.2818 67.5494 34.2953 67.4108C34.3088 67.2722 34.3604 67.1401 34.4443 67.029C34.5075 66.9376 34.5918 66.8629 34.6901 66.811L44.585 61.3065C39.2083 50.5376 32.4009 40.1928 24.6311 30.7013L19.3009 32.1295C23.5735 40.3046 27.7344 48.7903 30.0521 57.6799C30.0899 57.8381 30.0771 58.0041 30.0157 58.1547C29.9542 58.3053 29.8471 58.4328 29.7094 58.5193L18.3366 66.8146C27.1941 73.8662 35.0163 83.3372 39.24 93.8324C39.2768 93.9586 39.2785 94.0924 39.245 94.2195C39.2115 94.3466 39.1441 94.4622 39.0499 94.5538L35.9591 97.2563C35.0122 98.5189 33.3881 99.8045 31.6901 100.99L27.1209 104.986C42.4903 113.197 57.7479 123.893 69.5589 136.931C67.7825 133.707 65.922 130.534 63.9773 127.412C58.5499 118.668 52.4329 109.389 44.0545 103.19C44.0301 103.171 44.0191 103.146 43.9967 103.127C43.9426 103.082 43.896 103.03 43.8586 102.971C43.7877 102.878 43.7405 102.769 43.7208 102.654C43.7011 102.539 43.7096 102.421 43.7455 102.309Z" fill="#EA90A6"/>
<path d="M28.6014 57.5181C28.3915 57.4223 28.2529 56.5769 28.1192 56.3021C27.4472 54.9292 27.131 53.2296 26.5965 51.7942C25.2076 48.0579 23.5874 44.4093 21.8891 40.8052C20.5791 38.0267 19.2173 35.2707 17.8231 32.5298L14.7214 33.3609C19.3541 44.4148 24.4917 56.0982 25.7408 56.6909C26.8863 57.2408 24.8416 59.6823 22.4006 62.0842C24.3449 60.7064 26.2709 59.2929 28.1332 57.8171C28.2413 57.741 28.4332 57.6339 28.6014 57.5181Z" fill="#EA90A6"/>
<path d="M26.225 30.2785L24.6402 30.7032C32.4084 40.1887 39.2174 50.5395 44.5941 61.3084L34.6992 66.8129C34.7796 66.7682 34.8683 66.7405 34.9598 66.7314C35.0513 66.7224 35.1437 66.7322 35.2313 66.7603L36.9539 67.2734L45.6649 62.4266L45.3993 62.3307C44.5009 61.9995 44.8886 60.5526 45.7955 60.8836L46.1289 61.0085C40.9164 50.4848 34.3232 40.3482 26.8047 30.995C26.612 30.7553 26.4192 30.5156 26.225 30.2785Z" fill="#1A1A1A"/>
<path d="M34.3768 67.8161C34.3232 67.6892 34.3021 67.5509 34.3155 67.4137C34.3289 67.2766 34.3763 67.145 34.4534 67.0308C34.3695 67.1419 34.3179 67.2741 34.3044 67.4127C34.2909 67.5512 34.3159 67.6909 34.3768 67.8161Z" fill="#1A1A1A"/>
<path d="M34.8365 68.2048C34.7454 68.1801 34.6604 68.1371 34.5865 68.0785C34.5126 68.0199 34.4514 67.9468 34.4066 67.8638C34.4322 67.9196 34.4662 67.9712 34.5076 68.0167C42.901 75.1669 49.1774 85.3284 54.3172 95.0534L44.1428 101.849C44.219 101.814 44.3015 101.794 44.3856 101.79C44.4697 101.787 44.5536 101.8 44.6323 101.83L46.1034 102.339L55.3706 96.1549L54.9315 95.9469C54.0594 95.538 54.813 94.2415 55.6806 94.6495L55.8501 94.7305C51.1092 85.719 45.3569 76.2824 37.9134 69.1197L34.8365 68.2048Z" fill="#1A1A1A"/>
<path d="M72.8181 143.043C72.8932 143.14 72.9954 143.212 73.1117 143.251C72.6185 141.203 72.0307 139.169 71.3899 137.145C69.2154 133.131 66.8847 129.197 64.4526 125.348C59.8224 118.021 54.6766 110.448 48.1196 104.612L44.232 103.269C44.1466 103.238 44.0675 103.192 43.9983 103.133C44.0207 103.152 44.0317 103.177 44.0561 103.196C52.4345 109.395 58.5515 118.674 63.979 127.418C65.9162 130.539 67.7768 133.712 69.5605 136.937C57.748 123.893 42.4903 113.197 27.1209 104.986L31.6901 100.99L35.9591 97.2563L39.0499 94.5538C39.1441 94.4622 39.2116 94.3466 39.245 94.2195C39.2785 94.0924 39.2768 93.9586 39.2401 93.8324C35.0179 83.3432 27.1936 73.8642 18.3366 66.8146L29.7105 58.5233C29.8482 58.4368 29.9553 58.3093 30.0168 58.1587C30.0782 58.0081 30.091 57.8421 30.0532 57.6839C27.7355 48.7943 23.5746 40.3086 19.302 32.1335L17.8231 32.5298C19.2173 35.2707 20.5811 38.0262 21.8891 40.8052C23.5874 44.4093 25.2071 48.0559 26.5965 51.7942C27.1311 53.2296 27.4372 54.9319 28.1193 56.3021C28.2529 56.5769 28.3916 57.4223 28.6015 57.5181C28.4333 57.6339 28.2333 57.7431 28.1353 57.8251C26.2731 59.3008 24.3449 60.7064 22.4028 62.0922C20.5128 63.4405 18.6094 64.7709 16.7402 66.1328C16.3961 66.3835 16.1739 66.985 16.5929 67.3097C24.3776 73.3635 31.4095 81.3562 35.9227 90.1095C36.3325 90.9036 37.9332 93.1523 37.8295 93.6363C37.7698 93.9094 36.9609 94.3917 36.7517 94.5784L32.3645 98.4144L25.2847 104.608C25.2049 104.69 25.1448 104.789 25.1088 104.897C25.0728 105.005 25.062 105.121 25.077 105.234C25.0921 105.347 25.1327 105.455 25.1957 105.55C25.2587 105.646 25.3426 105.725 25.4409 105.783C42.983 115.036 60.3988 127.495 72.8181 143.043Z" fill="#1A1A1A"/>
<path d="M43.748 102.302C43.7658 102.245 43.7907 102.19 43.822 102.139C43.7905 102.19 43.7657 102.245 43.748 102.302Z" fill="#1A1A1A"/>
<path d="M43.8586 102.971C43.7936 102.875 43.7499 102.766 43.7304 102.652C43.7109 102.538 43.7161 102.421 43.7455 102.309C43.7096 102.421 43.7011 102.539 43.7208 102.654C43.7405 102.769 43.7877 102.878 43.8586 102.971Z" fill="#1A1A1A"/>
<path d="M59.2929 65.9615C59.2459 65.882 59.1929 65.8041 59.1433 65.7231C51.1046 52.2703 40.8196 40.2589 29.5566 29.3858L27.8658 29.8388C38.0073 39.5559 47.3666 50.1831 55.0305 61.9735C55.672 62.9604 56.2876 63.9629 56.9037 64.9673C57.5683 65.2091 58.2319 65.4526 58.8945 65.6977C59.0059 65.7401 59.1064 65.807 59.1886 65.8933C59.2709 65.9796 59.3327 66.0833 59.3697 66.1966C59.4066 66.31 59.4177 66.4302 59.4021 66.5484C59.3866 66.6666 59.3448 66.7798 59.2797 66.8797C59.373 66.7625 59.4291 66.6201 59.4406 66.4708C59.4521 66.3214 59.4186 66.1721 59.3444 66.042L59.2929 65.9615Z" fill="#1A1A1A"/>
<path d="M66.6 101.442L65.5776 100.96C65.201 101.369 64.5951 101.722 64.1796 102.05L58.414 106.594L58.7514 106.717C59.6581 107.031 59.2683 108.479 58.3546 108.162L58.0386 108.054C63.3015 117.192 68.1848 126.998 71.3915 137.151C72.0323 139.175 72.6201 141.209 73.1133 143.257C73.1545 143.411 73.1957 143.565 73.2364 143.717C73.257 143.81 73.2973 143.898 73.3547 143.974C73.4121 144.05 73.4852 144.113 73.5691 144.159C74.0546 144.436 74.8626 144.046 74.6934 143.326C72.074 132.224 67.0355 121.662 61.715 111.638C61.0796 110.442 60.5005 108.776 59.6029 107.753C59.5594 107.695 59.5208 107.634 59.4874 107.57C59.5942 107.501 59.7048 107.439 59.8185 107.383C60.0072 107.287 60.1909 107.173 60.3769 107.068C62.9021 105.62 65.2656 103.089 67.5188 101.314C67.6323 101.203 67.7015 101.055 67.7136 100.897C67.6875 101.013 67.6356 101.122 67.5619 101.216C67.4882 101.309 67.3944 101.385 67.2875 101.437C67.1806 101.489 67.0633 101.517 66.9443 101.518C66.8253 101.519 66.7077 101.493 66.6 101.442ZM59.3205 107.698C59.2058 107.806 59.2782 107.812 59.3205 107.698V107.698Z" fill="#1A1A1A"/>
<path d="M58.4931 67.1333L57.0033 66.5858L49.8213 71.0956L50.1311 71.1882C51.0611 71.4617 50.6609 72.9098 49.7343 72.6333L49.5018 72.565C54.3522 78.1562 58.4593 84.5785 61.8723 91.1204C62.5721 92.4638 63.2392 93.8237 63.8737 95.2003C64.2655 96.0549 64.6374 96.9234 64.9942 97.7832C65.0663 97.9566 65.536 98.814 65.8451 99.4402L67.3451 100.146C67.4365 100.189 67.5184 100.25 67.586 100.325C65.7666 95.4807 63.56 90.7905 60.9877 86.3001C58.1246 81.267 54.7987 76.5117 51.0532 72.0957L52.9877 70.8812L58.9514 67.1412C58.8029 67.1955 58.6396 67.1927 58.4931 67.1333Z" fill="#1A1A1A"/>
<path d="M67.3491 100.145L65.8491 99.4391L55.8409 94.72L55.6714 94.6391C54.8033 94.2291 54.0497 95.5256 54.9223 95.9365L55.3615 96.1444L65.5776 100.96L66.6 101.442C66.7067 101.491 66.8228 101.515 66.9401 101.514C67.0573 101.512 67.1728 101.485 67.2782 101.433C67.3836 101.382 67.4763 101.308 67.5497 101.217C67.6231 101.125 67.6753 101.019 67.7027 100.905C67.7336 100.806 67.7395 100.701 67.7199 100.6C67.7002 100.499 67.6556 100.404 67.59 100.324C67.5224 100.249 67.4405 100.188 67.3491 100.145Z" fill="#1A1A1A"/>
<path d="M44.6252 101.819C44.5464 101.789 44.4625 101.776 44.3784 101.779C44.2944 101.783 44.2118 101.803 44.1357 101.839C43.9998 101.899 43.8888 102.004 43.8215 102.137C43.7901 102.188 43.7653 102.243 43.7474 102.3C43.718 102.412 43.7128 102.529 43.7323 102.643C43.7518 102.757 43.7955 102.866 43.8605 102.962C43.8979 103.021 43.9445 103.073 43.9986 103.118C44.0677 103.177 44.1469 103.223 44.2323 103.254L48.1156 104.613L58.033 108.05L58.349 108.158C59.2628 108.474 59.6525 107.027 58.7458 106.713L58.4085 106.589L46.0901 102.322L44.6252 101.819Z" fill="#1A1A1A"/>
<path d="M35.2313 66.7603C35.1437 66.7322 35.0513 66.7224 34.9598 66.7315C34.8683 66.7405 34.7796 66.7682 34.6992 66.8129C34.6009 66.8648 34.5166 66.9395 34.4534 67.0309C34.3763 67.145 34.3289 67.2767 34.3155 67.4138C34.3021 67.5509 34.3232 67.6892 34.3768 67.8161C34.3859 67.8325 34.3959 67.8484 34.4067 67.8638C34.4515 67.9468 34.5127 68.0199 34.5865 68.0785C34.6604 68.1372 34.7455 68.1802 34.8365 68.2049L37.9064 69.1174L49.5038 72.5645L49.7363 72.6328C50.6669 72.9083 51.0552 71.4633 50.1331 71.1877L49.8234 71.0951L36.9539 67.2734L35.2313 66.7603Z" fill="#1A1A1A"/>
<path d="M58.8918 65.6877C58.2278 65.4372 57.5642 65.1938 56.9011 64.9573L46.1323 61.0054L45.799 60.8805C44.892 60.5495 44.5043 61.9964 45.4028 62.3276L45.6684 62.4235L57.0067 66.5827L58.4965 67.1303C58.6434 67.1865 58.8059 67.1865 58.9527 67.1301C59.0878 67.082 59.202 66.9885 59.276 66.8657C59.3403 66.766 59.3816 66.6531 59.3968 66.5355C59.412 66.4178 59.4008 66.2982 59.364 66.1853C59.3272 66.0725 59.2658 65.9693 59.1841 65.8832C59.1024 65.7972 59.0025 65.7304 58.8918 65.6877Z" fill="#1A1A1A"/>
</svg>
